<mxfile host="Electron" agent="Mozilla/5.0 (Macintosh; Intel Mac OS X 10_15_7) AppleWebKit/537.36 (KHTML, like Gecko) draw.io/26.2.2 Chrome/134.0.6998.178 Electron/35.1.2 Safari/537.36" version="26.2.2">
  <diagram name="Page-1" id="t8CD8iMALCH-X7aD-63t">
    <mxGraphModel dx="966" dy="675" grid="1" gridSize="10" guides="1" tooltips="1" connect="1" arrows="1" fold="1" page="1" pageScale="1" pageWidth="900" pageHeight="600" math="0" shadow="0">
      <root>
        <mxCell id="0" />
        <mxCell id="1" parent="0" />
        <mxCell id="618ZvPPxEhpNL2ob_TJ0-1" value="Card" style="swimlane;fontStyle=1;align=center;verticalAlign=top;childLayout=stackLayout;horizontal=1;startSize=26;horizontalStack=0;resizeParent=1;resizeParentMax=0;resizeLast=0;collapsible=1;marginBottom=0;whiteSpace=wrap;html=1;" parent="1" vertex="1">
          <mxGeometry x="10" y="330" width="160" height="180" as="geometry" />
        </mxCell>
        <mxCell id="618ZvPPxEhpNL2ob_TJ0-2" value="&lt;div&gt;CLUBS: str&lt;/div&gt;&lt;div&gt;DIAMONDS: str&lt;/div&gt;&lt;div&gt;HEARTS: str&lt;/div&gt;&lt;div&gt;SPADES: str&lt;/div&gt;&lt;div&gt;DECK: str&lt;/div&gt;+ value: int&lt;div&gt;+ utf: array&amp;lt;str&amp;gt;&lt;/div&gt;" style="text;strokeColor=none;fillColor=none;align=left;verticalAlign=top;spacingLeft=4;spacingRight=4;overflow=hidden;rotatable=0;points=[[0,0.5],[1,0.5]];portConstraint=eastwest;whiteSpace=wrap;html=1;" parent="618ZvPPxEhpNL2ob_TJ0-1" vertex="1">
          <mxGeometry y="26" width="160" height="114" as="geometry" />
        </mxCell>
        <mxCell id="618ZvPPxEhpNL2ob_TJ0-3" value="" style="line;strokeWidth=1;fillColor=none;align=left;verticalAlign=middle;spacingTop=-1;spacingLeft=3;spacingRight=3;rotatable=0;labelPosition=right;points=[];portConstraint=eastwest;strokeColor=inherit;" parent="618ZvPPxEhpNL2ob_TJ0-1" vertex="1">
          <mxGeometry y="140" width="160" height="8" as="geometry" />
        </mxCell>
        <mxCell id="618ZvPPxEhpNL2ob_TJ0-4" value="+ getValue(): int" style="text;strokeColor=none;fillColor=none;align=left;verticalAlign=top;spacingLeft=4;spacingRight=4;overflow=hidden;rotatable=0;points=[[0,0.5],[1,0.5]];portConstraint=eastwest;whiteSpace=wrap;html=1;" parent="618ZvPPxEhpNL2ob_TJ0-1" vertex="1">
          <mxGeometry y="148" width="160" height="32" as="geometry" />
        </mxCell>
        <mxCell id="618ZvPPxEhpNL2ob_TJ0-9" value="CardGraphic" style="swimlane;fontStyle=1;align=center;verticalAlign=top;childLayout=stackLayout;horizontal=1;startSize=26;horizontalStack=0;resizeParent=1;resizeParentMax=0;resizeLast=0;collapsible=1;marginBottom=0;whiteSpace=wrap;html=1;" parent="1" vertex="1">
          <mxGeometry x="290" y="330" width="160" height="124" as="geometry" />
        </mxCell>
        <mxCell id="618ZvPPxEhpNL2ob_TJ0-10" value="SUIT: array&amp;lt;str&amp;gt;&lt;div&gt;FACES: array&amp;lt;str&amp;gt;&lt;/div&gt;&lt;div&gt;JOKERS: str&lt;/div&gt;&lt;div&gt;DECK: str&lt;/div&gt;" style="text;strokeColor=none;fillColor=none;align=left;verticalAlign=top;spacingLeft=4;spacingRight=4;overflow=hidden;rotatable=0;points=[[0,0.5],[1,0.5]];portConstraint=eastwest;whiteSpace=wrap;html=1;" parent="618ZvPPxEhpNL2ob_TJ0-9" vertex="1">
          <mxGeometry y="26" width="160" height="64" as="geometry" />
        </mxCell>
        <mxCell id="618ZvPPxEhpNL2ob_TJ0-11" value="" style="line;strokeWidth=1;fillColor=none;align=left;verticalAlign=middle;spacingTop=-1;spacingLeft=3;spacingRight=3;rotatable=0;labelPosition=right;points=[];portConstraint=eastwest;strokeColor=inherit;" parent="618ZvPPxEhpNL2ob_TJ0-9" vertex="1">
          <mxGeometry y="90" width="160" height="8" as="geometry" />
        </mxCell>
        <mxCell id="618ZvPPxEhpNL2ob_TJ0-12" value="+ getTextValue(int): str" style="text;strokeColor=none;fillColor=none;align=left;verticalAlign=top;spacingLeft=4;spacingRight=4;overflow=hidden;rotatable=0;points=[[0,0.5],[1,0.5]];portConstraint=eastwest;whiteSpace=wrap;html=1;" parent="618ZvPPxEhpNL2ob_TJ0-9" vertex="1">
          <mxGeometry y="98" width="160" height="26" as="geometry" />
        </mxCell>
        <mxCell id="618ZvPPxEhpNL2ob_TJ0-14" value="Hand" style="swimlane;fontStyle=1;align=center;verticalAlign=top;childLayout=stackLayout;horizontal=1;startSize=26;horizontalStack=0;resizeParent=1;resizeParentMax=0;resizeLast=0;collapsible=1;marginBottom=0;whiteSpace=wrap;html=1;" parent="1" vertex="1">
          <mxGeometry x="520" y="330" width="300" height="110" as="geometry" />
        </mxCell>
        <mxCell id="618ZvPPxEhpNL2ob_TJ0-15" value="+ hand: array&amp;lt;CardGraphic&amp;gt;&lt;div&gt;+ card: CardGraphic&lt;/div&gt;" style="text;strokeColor=none;fillColor=none;align=left;verticalAlign=top;spacingLeft=4;spacingRight=4;overflow=hidden;rotatable=0;points=[[0,0.5],[1,0.5]];portConstraint=eastwest;whiteSpace=wrap;html=1;" parent="618ZvPPxEhpNL2ob_TJ0-14" vertex="1">
          <mxGeometry y="26" width="300" height="34" as="geometry" />
        </mxCell>
        <mxCell id="618ZvPPxEhpNL2ob_TJ0-16" value="" style="line;strokeWidth=1;fillColor=none;align=left;verticalAlign=middle;spacingTop=-1;spacingLeft=3;spacingRight=3;rotatable=0;labelPosition=right;points=[];portConstraint=eastwest;strokeColor=inherit;" parent="618ZvPPxEhpNL2ob_TJ0-14" vertex="1">
          <mxGeometry y="60" width="300" height="8" as="geometry" />
        </mxCell>
        <mxCell id="618ZvPPxEhpNL2ob_TJ0-17" value="+ handValues(array&amp;lt;CardGraphic&amp;gt;): array&amp;lt;int&amp;gt;&lt;div&gt;+ handValuesUTF(array&amp;lt;CardGraphic&amp;gt;): array&amp;lt;str&amp;gt;&lt;/div&gt;" style="text;strokeColor=none;fillColor=none;align=left;verticalAlign=top;spacingLeft=4;spacingRight=4;overflow=hidden;rotatable=0;points=[[0,0.5],[1,0.5]];portConstraint=eastwest;whiteSpace=wrap;html=1;" parent="618ZvPPxEhpNL2ob_TJ0-14" vertex="1">
          <mxGeometry y="68" width="300" height="42" as="geometry" />
        </mxCell>
        <mxCell id="618ZvPPxEhpNL2ob_TJ0-18" value="" style="endArrow=diamondThin;endFill=1;endSize=24;html=1;rounded=0;entryX=0.002;entryY=0.1;entryDx=0;entryDy=0;entryPerimeter=0;" parent="1" target="618ZvPPxEhpNL2ob_TJ0-14" edge="1">
          <mxGeometry width="160" relative="1" as="geometry">
            <mxPoint x="450" y="340" as="sourcePoint" />
            <mxPoint x="530" y="340" as="targetPoint" />
          </mxGeometry>
        </mxCell>
        <mxCell id="618ZvPPxEhpNL2ob_TJ0-19" value="Deck" style="swimlane;fontStyle=1;align=center;verticalAlign=top;childLayout=stackLayout;horizontal=1;startSize=26;horizontalStack=0;resizeParent=1;resizeParentMax=0;resizeLast=0;collapsible=1;marginBottom=0;whiteSpace=wrap;html=1;" parent="1" vertex="1">
          <mxGeometry x="540" y="70" width="190" height="180" as="geometry" />
        </mxCell>
        <mxCell id="618ZvPPxEhpNL2ob_TJ0-20" value="+ deck: array&amp;lt;CardGraphic&amp;gt;&lt;div&gt;+ hand: Hand&lt;div&gt;&lt;br&gt;&lt;/div&gt;&lt;/div&gt;" style="text;strokeColor=none;fillColor=none;align=left;verticalAlign=top;spacingLeft=4;spacingRight=4;overflow=hidden;rotatable=0;points=[[0,0.5],[1,0.5]];portConstraint=eastwest;whiteSpace=wrap;html=1;" parent="618ZvPPxEhpNL2ob_TJ0-19" vertex="1">
          <mxGeometry y="26" width="190" height="44" as="geometry" />
        </mxCell>
        <mxCell id="618ZvPPxEhpNL2ob_TJ0-21" value="" style="line;strokeWidth=1;fillColor=none;align=left;verticalAlign=middle;spacingTop=-1;spacingLeft=3;spacingRight=3;rotatable=0;labelPosition=right;points=[];portConstraint=eastwest;strokeColor=inherit;" parent="618ZvPPxEhpNL2ob_TJ0-19" vertex="1">
          <mxGeometry y="70" width="190" height="8" as="geometry" />
        </mxCell>
        <mxCell id="618ZvPPxEhpNL2ob_TJ0-22" value="+ resetDeck():&lt;div&gt;+ shuffleDeck():&lt;/div&gt;&lt;div&gt;+ drawCard(): CardGraphic&lt;/div&gt;&lt;div&gt;+ deckValues(): array&amp;lt;str&amp;gt;&lt;/div&gt;&lt;div&gt;+ deckTextValues(): array&amp;lt;str&amp;gt;&lt;/div&gt;&lt;div&gt;+ cards(): int&lt;/div&gt;" style="text;strokeColor=none;fillColor=none;align=left;verticalAlign=top;spacingLeft=4;spacingRight=4;overflow=hidden;rotatable=0;points=[[0,0.5],[1,0.5]];portConstraint=eastwest;whiteSpace=wrap;html=1;" parent="618ZvPPxEhpNL2ob_TJ0-19" vertex="1">
          <mxGeometry y="78" width="190" height="102" as="geometry" />
        </mxCell>
        <mxCell id="618ZvPPxEhpNL2ob_TJ0-23" value="" style="endArrow=diamondThin;endFill=1;endSize=24;html=1;rounded=0;entryX=-0.005;entryY=0.06;entryDx=0;entryDy=0;entryPerimeter=0;" parent="1" target="618ZvPPxEhpNL2ob_TJ0-19" edge="1">
          <mxGeometry width="160" relative="1" as="geometry">
            <mxPoint x="450" y="340" as="sourcePoint" />
            <mxPoint x="570" y="590" as="targetPoint" />
          </mxGeometry>
        </mxCell>
        <mxCell id="618ZvPPxEhpNL2ob_TJ0-24" value="" style="endArrow=diamondThin;endFill=1;endSize=24;html=1;rounded=0;entryX=0.995;entryY=0.066;entryDx=0;entryDy=0;entryPerimeter=0;exitX=0.937;exitY=-0.003;exitDx=0;exitDy=0;exitPerimeter=0;" parent="1" source="618ZvPPxEhpNL2ob_TJ0-14" target="618ZvPPxEhpNL2ob_TJ0-19" edge="1">
          <mxGeometry width="160" relative="1" as="geometry">
            <mxPoint x="810" y="590" as="sourcePoint" />
            <mxPoint x="970" y="590" as="targetPoint" />
          </mxGeometry>
        </mxCell>
        <mxCell id="rk77yQC6L5X84qJW6CXL-1" value="Extends" style="endArrow=block;endSize=16;endFill=0;html=1;rounded=0;exitX=0;exitY=0.119;exitDx=0;exitDy=0;exitPerimeter=0;entryX=0.994;entryY=0.082;entryDx=0;entryDy=0;entryPerimeter=0;" edge="1" parent="1" source="618ZvPPxEhpNL2ob_TJ0-9" target="618ZvPPxEhpNL2ob_TJ0-1">
          <mxGeometry width="160" relative="1" as="geometry">
            <mxPoint x="170" y="290" as="sourcePoint" />
            <mxPoint x="172" y="150" as="targetPoint" />
          </mxGeometry>
        </mxCell>
      </root>
    </mxGraphModel>
  </diagram>
</mxfile>
